<svg width="40" height="12" viewBox="0 0 520 113" fill="none" xmlns="http://www.w3.org/2000/svg">
<path d="M131.024 31L221.018 34" stroke="black" stroke-width="5"/>
<path d="M15 34L18 63L15 91" stroke="black" stroke-width="5"/>
<path d="M487 33L484.617 67.9922L487.5 104.5" stroke="black" stroke-width="5"/>
<g style="mix-blend-mode:color">
<path d="M3 47V65V85L8 91H16.5L25 102H45.5L51.5 93.5H66L69 98H224.5V96H232L236 91L241.5 96H247L251.5 91L256 96H261L265.5 91L269.5 96H276L280.5 91L286 96H290L293.5 87.5L297.5 96H304.5L309 91L314.5 96H320L323 87.5L329 96H334L338.5 91L342.5 98H346L352.5 91L357.5 98H363.5L369 87.5V79.5L389 81.5V87.5H393L395.5 98H400L403.5 94H419L422 81.5H446.5V84.5V87.5H454V94L458.5 98H477.5V101L481.5 104.5H488L494 110.5H497L502.5 101L505 84.5H515L517.5 76V65.5V56.5L515 51.5H505L502.5 42V35.5L500 28.5L497 24.5H494L490.5 28.5L488 32.5H481.5L477.5 35.5H458.5L456 39.5L454 46.5H449.5L446.5 51.5H422L419 39.5H403.5L400 35.5H395.5L393 46.5H389V51.5H369V42L363.5 32.5H357.5L352.5 39.5L348.5 32.5H342.5L338.5 39.5L334 32.5H329L323 39.5L320 32.5H314.5L309 39.5L304.5 32.5H300.5L293.5 39.5L290 32.5H286L280.5 39.5L276 32.5H269.5L265.5 39.5L261 32.5H256L251.5 39.5L247 32.5H241.5L236 39.5L232 32.5H222V6L135 3L131 6V29.5H124H69L66 32.5H51.5V29.5L61 27L76.5 24L86 22L88.5 18.5H83.5H63L25 24L16.5 32.5H11.5L8 36L3 47Z" fill="#424141"/>
<path d="M3 47V65V85L8 91H16.5L25 102H45.5L51.5 93.5H66L69 98H224.5V96H232L236 91L241.5 96H247L251.5 91L256 96H261L265.5 91L269.5 96H276L280.5 91L286 96H290L293.5 87.5L297.5 96H304.5L309 91L314.5 96H320L323 87.5L329 96H334L338.5 91L342.5 98H346L352.5 91L357.5 98H363.5L369 87.5V79.5L389 81.5V87.5H393L395.5 98H400L403.5 94H419L422 81.5H446.5V84.5V87.5H454V94L458.5 98H477.5V101L481.5 104.5H488L494 110.5H497L502.5 101L505 84.5H515L517.5 76V65.5V56.5L515 51.5H505L502.5 42V35.5L500 28.5L497 24.5H494L490.5 28.5L488 32.5H481.5L477.5 35.5H458.5L456 39.5L454 46.5H449.5L446.5 51.5H422L419 39.5H403.5L400 35.5H395.5L393 46.5H389V51.5H369V42L363.5 32.5H357.5L352.5 39.5L348.5 32.5H342.5L338.5 39.5L334 32.5H329L323 39.5L320 32.5H314.5L309 39.5L304.5 32.5H300.5L293.5 39.5L290 32.5H286L280.5 39.5L276 32.5H269.5L265.5 39.5L261 32.5H256L251.5 39.5L247 32.5H241.5L236 39.5L232 32.5H222V6L135 3L131 6V29.5H124H69L66 32.5H51.5V29.5L61 27L76.5 24L86 22L88.5 18.5H83.5H63L25 24L16.5 32.5H11.5L8 36L3 47Z" stroke="black" stroke-width="5"/>
</g>
<path d="M235.5 42L239 53.5L240.5 66L239 77.5L236 88.5" stroke="black" stroke-width="2"/>
<path d="M251 41.5L254.5 53.6183L256 66.7903L254.5 78.9086L251.5 90.5" stroke="black" stroke-width="2"/>
<path d="M338.5 41L341.5 49L343 59.5V66.5L341.5 78L338.5 89" stroke="black" stroke-width="2"/>
<path d="M321.5 40L323.5 46.5L324.5 52L326 64.5L324.5 76L321.5 87" stroke="black" stroke-width="2"/>
<path d="M293 42L295.5 52.6398L297 63.6613L295.5 73.8011L294.5 79L293 85.5" stroke="black" stroke-width="2"/>
<path d="M309 40.5L312.5 54L314 66.5L312.5 78L309 88.5" stroke="black" stroke-width="2"/>
<path d="M265.5 40.5L268.5 54L270 66.5L268.5 78L265.5 89" stroke="black" stroke-width="2"/>
<path d="M280.5 41L283.5 54L285 66.5L283.5 78L280.5 89" stroke="black" stroke-width="2"/>
<path d="M352 41.5L354.5 48.5L357 59L356 72L354.5 81.5L353 89" stroke="black" stroke-width="2"/>
<path d="M369 51L368.3 57.9247L368 65.4516L368.3 72.3763L368.9 79" stroke="black" stroke-width="5"/>
</svg>
